<?xml version="1.0" ?><!DOCTYPE svg  PUBLIC '-//W3C//DTD SVG 1.1//EN'  'http://www.w3.org/Graphics/SVG/1.1/DTD/svg11.dtd'><svg height="8.4666mm" style="shape-rendering:geometricPrecision; text-rendering:geometricPrecision; image-rendering:optimizeQuality; fill-rule:evenodd; clip-rule:evenodd" version="1.1" viewBox="0 0 846.66 846.66" width="8.4666mm" xml:space="preserve" xmlns="http://www.w3.org/2000/svg" xmlns:xlink="http://www.w3.org/1999/xlink"><defs><style type="text/css">
   <![CDATA[
    .fil0 {fill:black;fill-rule:nonzero}
   ]]>
  </style></defs><g id="Layer_x0020_1"><path class="fil0" d="M398.92 491.88l387.75 0c-8.42,-216.9 -158.87,-429.91 -387.75,-442.95l0 442.95zm-339.34 213.93l641.96 0 46.34 -50.83c-229.43,0 -458.86,0 -688.3,0l0 50.83zm603.97 41.66l-603.97 0 0 50.83 557.63 0 46.34 -50.83zm-547.41 -222.26l106.25 0c11.5,0 20.83,9.32 20.83,20.83l0 67.28 35.41 0 0 -469.34c0,-27.4 41.66,-27.4 41.66,0l0 469.34 36.97 0 0 -585.81c0,-11.51 9.33,-20.83 20.83,-20.83 269.95,0 450.65,251.34 450.65,506.03 0,11.5 -9.33,20.83 -20.83,20.83l-408.99 0 0 79.78 396.1 0c18.8,0 27.73,22.87 14.54,35.74l-167.83 184.07c-4.1,4.51 -9.73,6.8 -15.38,6.8l-587.6 0.04c-11.5,0 -20.83,-9.33 -20.83,-20.83l0 -184.99c0,-11.5 9.33,-20.83 20.83,-20.83l56.56 0 0 -67.28c0,-11.51 9.33,-20.83 20.83,-20.83zm85.42 41.66l-64.59 0 0 46.45 64.59 0 0 -46.45zm222.89 -229.15c0,-27.4 41.67,-27.4 41.67,0l0 77.08 64.58 0c27.4,0 27.4,41.66 0,41.66l-85.42 0c-11.5,0 -20.83,-9.33 -20.83,-20.83l0 -97.91z"/></g></svg>